<svg width="49" height="48" viewBox="0 0 49 48" fill="none" xmlns="http://www.w3.org/2000/svg">
<g clip-path="url(#clip0_1_116)">
<path d="M16.0641 33.9949C15.2531 33.1802 15.6759 33.4099 13.7196 32.8839C12.832 32.6449 12.0517 32.1855 11.3461 31.6352L7.1116 42.0639C6.70187 43.0736 7.4672 44.1705 8.55174 44.1292L13.4695 43.9408L16.8519 47.5296C17.5985 48.3208 18.9089 48.0742 19.3187 47.0646L24.1767 35.1002C23.1649 35.6664 22.0421 35.9983 20.8811 35.9983C19.0611 35.9983 17.3512 35.2867 16.0641 33.9949ZM42.7276 42.0639L38.4931 31.6352C37.7875 32.1864 37.0072 32.6449 36.1196 32.8839C34.1531 33.4127 34.5843 33.1821 33.7751 33.9949C32.488 35.2867 30.7772 35.9983 28.9572 35.9983C27.7961 35.9983 26.6733 35.6655 25.6616 35.1002L30.5196 47.0646C30.9293 48.0742 32.2407 48.3208 32.9864 47.5296L36.3697 43.9408L41.2875 44.1292C42.372 44.1705 43.1373 43.0727 42.7276 42.0639ZM31.5463 31.8733C32.9724 30.4155 33.1357 30.5411 35.1667 29.9852C36.4631 29.6299 37.4767 28.5939 37.8239 27.2683C38.522 24.6058 38.3409 24.9274 40.2459 22.9792C41.1951 22.0089 41.5656 20.5942 41.2184 19.2686C40.5212 16.608 40.5203 16.9792 41.2184 14.3158C41.5656 12.9902 41.1951 11.5755 40.2459 10.6052C38.3409 8.65706 38.522 8.97769 37.8239 6.31613C37.4767 4.9905 36.4631 3.95456 35.1667 3.59925C32.5645 2.88581 32.8781 3.07238 30.9713 1.12331C30.0221 0.153002 28.638 -0.226685 27.3416 0.128627C24.7404 0.841127 25.1035 0.842064 22.4976 0.128627C21.2012 -0.226685 19.8171 0.152065 18.8679 1.12331C16.9629 3.07144 17.2765 2.88581 14.6735 3.59925C13.3771 3.95456 12.3635 4.9905 12.0163 6.31613C11.3191 8.97769 11.4992 8.65706 9.59427 10.6052C8.64507 11.5755 8.2736 12.9902 8.62174 14.3158C9.31894 16.9746 9.31987 16.6033 8.62174 19.2677C8.27454 20.5933 8.64507 22.008 9.59427 22.9792C11.4992 24.9274 11.3181 24.6058 12.0163 27.2683C12.3635 28.5939 13.3771 29.6299 14.6735 29.9852C16.7623 30.5571 16.9181 30.4671 18.2929 31.8733C19.5277 33.1361 21.4513 33.3621 22.9353 32.4189C23.5288 32.0405 24.2172 31.8396 24.9201 31.8396C25.623 31.8396 26.3114 32.0405 26.9048 32.4189C28.3879 33.3621 30.3115 33.1361 31.5463 31.8733ZM16.1145 16.4946C16.1145 11.523 20.0569 7.49269 24.9196 7.49269C29.7823 7.49269 33.7247 11.523 33.7247 16.4946C33.7247 21.4661 29.7823 25.4964 24.9196 25.4964C20.0569 25.4964 16.1145 21.4661 16.1145 16.4946Z" fill="#00A0C1"/>
</g>
<defs>
<clipPath id="clip0_1_116">
<rect width="35.84" height="48" fill="white" transform="translate(7)"/>
</clipPath>
</defs>
</svg>
